<svg xmlns="http://www.w3.org/2000/svg" version="1.1" xmlns:xlink="http://www.w3.org/1999/xlink" xmlns:svgjs="http://svgjs.com/svgjs" width="512" height="512" x="0" y="0" viewBox="0 0 512 512" style="enable-background:new 0 0 512 512" xml:space="preserve" class=""><g>
<path xmlns="http://www.w3.org/2000/svg" style="" d="M239.067,297.164L239.067,297.164l135.642-141.658l-37.064-37.064L195.972,254.073L4.373,437.029  c-5.739,5.479-5.843,14.607-0.233,20.217l31.734,31.73c5.611,5.61,14.739,5.505,20.219-0.233L239.067,297.164z" fill="#cccccc" data-original="#cccccc"></path>
<path xmlns="http://www.w3.org/2000/svg" style="" d="M37.122,490.076c1.378,1.089,2.913,1.881,4.517,2.383c0.043,0.014,0.085,0.031,0.128,0.044  c0.319,0.097,0.643,0.173,0.967,0.247c0.111,0.025,0.22,0.056,0.332,0.078c0.292,0.059,0.586,0.101,0.88,0.141  c0.147,0.02,0.293,0.044,0.441,0.059c0.273,0.029,0.548,0.044,0.822,0.057c0.171,0.008,0.341,0.017,0.512,0.019  c0.258,0.003,0.515-0.005,0.773-0.016c0.189-0.008,0.377-0.018,0.565-0.034c0.243-0.02,0.486-0.048,0.728-0.081  c0.201-0.027,0.402-0.059,0.603-0.095c0.23-0.041,0.458-0.087,0.686-0.14c0.211-0.049,0.421-0.105,0.631-0.164  c0.215-0.06,0.429-0.122,0.642-0.193c0.218-0.073,0.434-0.155,0.649-0.239c0.2-0.077,0.4-0.154,0.596-0.241  c0.224-0.099,0.444-0.211,0.664-0.323c0.182-0.092,0.365-0.18,0.544-0.281c0.231-0.13,0.454-0.275,0.679-0.419  c0.161-0.103,0.324-0.199,0.481-0.309c0.248-0.173,0.486-0.365,0.725-0.556c0.125-0.1,0.254-0.19,0.376-0.295  c0.352-0.302,0.693-0.622,1.02-0.964c0.004-0.004,0.008-0.008,0.012-0.012l182.974-191.581l0,0l135.642-141.658l-20.627-20.627  L218.188,276.287L25.356,478.46l10.518,10.517c0.282,0.282,0.579,0.539,0.878,0.793C36.875,489.872,36.997,489.978,37.122,490.076z" fill="#b3b3b3" data-original="#b3b3b3"></path>
<path xmlns="http://www.w3.org/2000/svg" style="" d="M13.022,63.819L63.8,13.045c2.022-2.022,5.3-2.022,7.322,0l427.854,427.814  c2.022,2.022,2.022,5.3,0,7.322l-50.778,50.774c-2.022,2.022-5.3,2.022-7.322,0L13.022,71.141C11,69.119,11,65.841,13.022,63.819z" fill="#ffa227" data-original="#ffa227"></path>
<g xmlns="http://www.w3.org/2000/svg">
	<path style="" d="M424.591,468.575c-1.318,0-2.636-0.503-3.642-1.509c-2.012-2.011-2.012-5.273,0-7.284l13.401-13.401   c2.012-2.012,5.273-2.012,7.285,0c2.012,2.011,2.012,5.273,0,7.284l-13.401,13.401   C427.227,468.072,425.909,468.575,424.591,468.575z" fill="#ffcc5a" data-original="#ffcc5a" class=""></path>
	<path style="" d="M48.575,92.56c-1.318,0-2.636-0.503-3.642-1.509c-2.012-2.011-2.012-5.273,0-7.284l13.401-13.401   c2.012-2.012,5.273-2.012,7.285,0c2.012,2.011,2.012,5.273,0,7.284L52.218,91.051C51.212,92.057,49.894,92.56,48.575,92.56z" fill="#ffcc5a" data-original="#ffcc5a" class=""></path>
	<path style="" d="M142.579,186.564c-1.318,0-2.636-0.503-3.642-1.509c-2.012-2.011-2.012-5.273,0-7.284l13.402-13.401   c2.013-2.011,5.274-2.011,7.285,0c2.012,2.011,2.012,5.273,0,7.284l-13.402,13.401   C145.215,186.061,143.897,186.564,142.579,186.564z" fill="#ffcc5a" data-original="#ffcc5a" class=""></path>
	<path style="" d="M236.583,280.568c-1.318,0-2.636-0.503-3.642-1.508c-2.012-2.012-2.012-5.274,0-7.285l13.401-13.402   c2.011-2.012,5.273-2.011,7.285-0.001c2.012,2.012,2.012,5.274,0,7.285l-13.401,13.402   C239.22,280.065,237.901,280.568,236.583,280.568z" fill="#ffcc5a" data-original="#ffcc5a" class=""></path>
	<path style="" d="M330.587,374.571c-1.318,0-2.636-0.503-3.642-1.509c-2.012-2.011-2.012-5.273,0-7.284l13.402-13.401   c2.013-2.012,5.273-2.011,7.285,0s2.012,5.273,0,7.284l-13.402,13.401C333.223,374.068,331.904,374.571,330.587,374.571z" fill="#ffcc5a" data-original="#ffcc5a" class=""></path>
	<path style="" d="M71.123,13.046c-2.022-2.022-5.3-2.022-7.322,0l-15.222,15.22l435.177,435.135l0,0l15.221-15.22   c2.022-2.022,2.022-5.3,0-7.322L71.123,13.046z" fill="#ffcc5a" data-original="#ffcc5a" class=""></path>
</g>
<path xmlns="http://www.w3.org/2000/svg" style="" d="M498.977,440.859l-20.884-20.882c2.022,2.022,2.022,5.3,0,7.322l-50.778,50.774  c-2.022,2.022-5.3,2.022-7.322,0l20.884,20.882c2.022,2.022,5.3,2.022,7.322,0l50.778-50.774  C500.999,446.159,500.999,442.881,498.977,440.859z" fill="#f78b0b" data-original="#f78b0b"></path>
<path xmlns="http://www.w3.org/2000/svg" style="" d="M498.977,440.859l-20.884-20.882c2.022,2.022,2.022,5.3,0,7.322l-15.222,15.22l20.884,20.882l0,0  l15.221-15.22C500.999,446.159,500.999,442.881,498.977,440.859z" fill="#ffb000" data-original="#ffb000"></path>
<path xmlns="http://www.w3.org/2000/svg" style="" d="M509.336,169.03l-20.714-20.712l-37.546-27.32l0.421-0.421c2.91-2.91,2.91-7.629,0-10.539  l-69.013-69.006c-28.496-28.493-74.071-29.494-103.77-3.008c-0.838,0.747-0.888,2.041-0.094,2.834l9.392,9.391  c0.585,0.585,1.471,0.724,2.219,0.373c19.203-9.018,42.798-5.601,58.651,10.287c5.141,5.152,5.104,13.611-0.042,18.757  l-10.788,10.787l-0.223,0.223l-11.601,11.6c-5.271,5.27-5.271,13.815,0,19.085l38.049,38.045c6.245,6.245,15.203,8.949,23.861,7.202  l14.737-2.973c3.452-0.696,6.994,0.683,9.067,3.53l24.358,33.468l20.714,20.713c3.552,3.552,9.311,3.552,12.864,0l39.457-39.453  C512.888,178.341,512.888,172.582,509.336,169.03z" fill="#808080" data-original="#808080" class=""></path>
<path xmlns="http://www.w3.org/2000/svg" style="" d="M509.336,169.03l-14.285-14.284l-52.714,51.922l14.679,14.677c3.552,3.552,9.311,3.552,12.864,0  l39.457-39.453C512.888,178.341,512.888,172.582,509.336,169.03z" fill="#666666" data-original="#666666"></path>
<path xmlns="http://www.w3.org/2000/svg" style="" d="M167.058,281.683L167.058,281.683L4.373,437.03c-5.739,5.479-5.843,14.607-0.233,20.217  l31.734,31.731c5.611,5.61,14.739,5.505,20.219-0.233l155.362-162.67L167.058,281.683z" fill="#ffa227" data-original="#ffa227"></path>
<path xmlns="http://www.w3.org/2000/svg" style="" d="M190.595,305.217L25.356,478.461l10.518,10.517c5.611,5.61,14.739,5.505,20.219-0.233l155.362-162.67  L190.595,305.217z" fill="#ef8b06" data-original="#ef8b06"></path>
<path xmlns="http://www.w3.org/2000/svg" style="" d="M419.923,118.809c0.148-0.194,0.307-0.384,0.485-0.562l0,0c2.141-2.138,2.142-5.607,0.003-7.747  l-37.045-37.04c-3.081-3.081-8.398-1.514-9.228,2.763c-1.317,6.781-4.597,13.254-9.838,18.494l-12.305,12.303  c-2.139,2.138-2.139,5.606,0,7.744l27.743,27.739c0.703,0.703,1.675,1.106,2.668,1.106c0.25,0,0.501-0.025,0.747-0.075  c0,0,10.625-2.138,14.035-2.824c0.682-0.137,1.302-0.471,1.794-0.963L419.923,118.809z" fill="#999999" data-original="#999999"></path>
<polygon xmlns="http://www.w3.org/2000/svg" style="" points="28.02,481.124 34.892,487.996 203.488,318.109 196.615,311.237 " fill="#efac03" data-original="#efac03"></polygon>
<polygon xmlns="http://www.w3.org/2000/svg" style="" points="7.225,460.331 14.098,467.203 182.693,297.316 175.82,290.444 " fill="#ffcc5a" data-original="#ffcc5a" class=""></polygon>
<g xmlns="http://www.w3.org/2000/svg">
</g>
<g xmlns="http://www.w3.org/2000/svg">
</g>
<g xmlns="http://www.w3.org/2000/svg">
</g>
<g xmlns="http://www.w3.org/2000/svg">
</g>
<g xmlns="http://www.w3.org/2000/svg">
</g>
<g xmlns="http://www.w3.org/2000/svg">
</g>
<g xmlns="http://www.w3.org/2000/svg">
</g>
<g xmlns="http://www.w3.org/2000/svg">
</g>
<g xmlns="http://www.w3.org/2000/svg">
</g>
<g xmlns="http://www.w3.org/2000/svg">
</g>
<g xmlns="http://www.w3.org/2000/svg">
</g>
<g xmlns="http://www.w3.org/2000/svg">
</g>
<g xmlns="http://www.w3.org/2000/svg">
</g>
<g xmlns="http://www.w3.org/2000/svg">
</g>
<g xmlns="http://www.w3.org/2000/svg">
</g>
</g></svg>