<svg xmlns="http://www.w3.org/2000/svg" version="1.1" xmlns:xlink="http://www.w3.org/1999/xlink" xmlns:svgjs="http://svgjs.com/svgjs" width="512" height="512" x="0" y="0" viewBox="0 0 512 512" style="enable-background:new 0 0 512 512" xml:space="preserve" class=""><g><g xmlns="http://www.w3.org/2000/svg" id="_x31_2_Premium_Content"><g><path d="m393.441 402.179c0 13.434-10.864 24.604-24.567 24.604h-225.749c-13.565 0-24.566-11.001-24.566-24.604 0-13.334 10.811-24.566 24.566-24.566h225.749c13.566.001 24.567 11.002 24.567 24.566z" fill="#f2d85d" data-original="#f2d85d" class=""></path><path d="m420.147 224.981-4.822 12.736-47.762 126.228-5.186 13.646h-212.791l-5.185-13.646-47.763-126.227-4.822-12.736c7.187-2.73 13.282-7.642 17.467-13.92 4.185 2.138 8.37 4.003 12.555 5.686 43.668 16.876 87.154 4.458 115.766-48.126 2.138-3.866 4.139-7.96 6.095-12.281 3.867 1.365 8.006 2.092 12.282 2.092 4.321 0 8.506-.727 12.327-2.092 1.956 4.321 3.957 8.416 6.095 12.281 28.658 52.63 72.098 65.002 115.766 48.126 4.185-1.683 8.37-3.548 12.555-5.686 4.186 6.277 10.236 11.144 17.423 13.919z" fill="#faa629" data-original="#faa629"></path><path d="m367.563 363.946-5.186 13.646h-212.791l-5.186-13.646z" opacity=".1" fill="#000000" data-original="#000000"></path><path d="m274.404 168.621c-5.686 2.274-11.918 3.503-18.422 3.503-6.505 0-12.691-1.228-18.377-3.503 2.138-3.866 4.139-7.96 6.095-12.281 3.867 1.365 8.006 2.092 12.282 2.092 4.321 0 8.506-.727 12.327-2.092 1.956 4.321 3.957 8.416 6.095 12.281z" opacity=".1" fill="#000000" data-original="#000000"></path><path d="m292.626 121.824c0 20.218-16.389 36.645-36.644 36.645-20.218 0-36.608-16.427-36.608-36.645s16.39-36.608 36.608-36.608c20.255.001 36.644 16.39 36.644 36.608z" fill="#faa629" data-original="#faa629"></path><path d="m121.838 216.748c-5.823 9.507-14.647 16.967-25.2 20.97l-4.822-12.736c7.187-2.73 13.282-7.642 17.467-13.92 4.185 2.138 8.37 4.003 12.555 5.686z" opacity=".1" fill="#000000" data-original="#000000"></path><path d="m115.46 190.712c0 20.218-16.39 36.645-36.644 36.645-20.218 0-36.608-16.427-36.608-36.645s16.39-36.608 36.608-36.608c20.255 0 36.644 16.39 36.644 36.608z" fill="#faa629" data-original="#faa629"></path><path d="m420.147 224.981-4.822 12.736c-10.508-4.003-19.378-11.463-25.155-20.97 4.185-1.683 8.37-3.548 12.555-5.686 4.185 6.278 10.235 11.145 17.422 13.92z" opacity=".1" fill="#000000" data-original="#000000"></path><path d="m469.792 190.712c0 20.218-16.389 36.645-36.644 36.645-20.218 0-36.608-16.427-36.608-36.645s16.39-36.608 36.608-36.608c20.255 0 36.644 16.39 36.644 36.608z" fill="#faa629" data-original="#faa629"></path><path d="m290.616 290.07c0 27.657-15.511 50.082-34.616 50.082s-34.617-22.425-34.617-50.082c0-27.656 15.511-50.082 34.617-50.082 19.105 0 34.616 22.426 34.616 50.082z" fill="#df7f19" data-original="#df7f19"></path></g></g></g></svg>